HIERARCHY
ROOT Hips
{
	OFFSET -3.958830 18.904000 13.208200
	CHANNELS 6 Xposition Yposition Zposition Zrotation Yrotation Xrotation 
	JOINT LHipJoint
	{
		OFFSET 0.000000 0.000000 0.000000
		CHANNELS 3 Zrotation Yrotation Xrotation
		JOINT LeftUpLeg
		{
			OFFSET 1.800000 -1.400000 0.085000
			CHANNELS 3 Zrotation Yrotation Xrotation
			JOINT LeftLeg
			{
				OFFSET 2.215000 -6.000000 0.000000
				CHANNELS 3 Zrotation Yrotation Xrotation
				JOINT LeftFoot
				{
					OFFSET 2.500000 -6.900000 0.000000
					CHANNELS 3 Zrotation Yrotation Xrotation
					JOINT LeftToeBase
					{
						OFFSET 0.200000 -0.500000 1.950000
						CHANNELS 3 Zrotation Yrotation Xrotation
						End Site
						{
							OFFSET 0.000000 0.000000 0.000000
						}
					}
				}
			}
		}
	}
	JOINT RHipJoint
	{
		OFFSET 0.000000 0.000000 0.000000
		CHANNELS 3 Zrotation Yrotation Xrotation
		JOINT RightUpLeg
		{
			OFFSET -1.800000 -1.400000 0.085000
			CHANNELS 3 Zrotation Yrotation Xrotation
			JOINT RightLeg
			{
				OFFSET -2.215000 -6.000000 0.000000
				CHANNELS 3 Zrotation Yrotation Xrotation
				JOINT RightFoot
				{
					OFFSET -2.500000 -6.900000 0.000000
					CHANNELS 3 Zrotation Yrotation Xrotation
					JOINT RightToeBase
					{
						OFFSET -0.200000 -0.500000 1.950000
						CHANNELS 3 Zrotation Yrotation Xrotation
						End Site
						{
							OFFSET 0.000000 0.000000 0.000000
						}
					}
				}
			}
		}
	}
	JOINT LowerBack
	{
		OFFSET 0.000000 0.000000 0.000000
		CHANNELS 3 Zrotation Yrotation Xrotation
		JOINT Spine
		{
			OFFSET -0.087000 1.940000 -0.288900
			CHANNELS 3 Zrotation Yrotation Xrotation
			JOINT Spine1
			{
				OFFSET 0.000000 1.950000 0.060000
				CHANNELS 3 Zrotation Yrotation Xrotation
				JOINT Neck
				{
					OFFSET 0.000000 0.000000 0.000000
					CHANNELS 3 Zrotation Yrotation Xrotation
					JOINT Neck1
					{
						OFFSET 0.000000 1.600000 0.340000
						CHANNELS 3 Zrotation Yrotation Xrotation
						JOINT Head
						{
							OFFSET 0.000000 1.667000 -0.240000
							CHANNELS 3 Zrotation Yrotation Xrotation
							End Site
							{
								OFFSET 0.000000 0.000000 0.000000
							}
						}
					}
				}
				JOINT LeftShoulder
				{
					OFFSET 0.000000 0.000000 0.000000
					CHANNELS 3 Zrotation Yrotation Xrotation
					JOINT LeftArm
					{
						OFFSET 2.700000 1.550000 -0.730000
						CHANNELS 3 Zrotation Yrotation Xrotation
						JOINT LeftForeArm
						{
							OFFSET 5.450000 0.000000 0.000000
							CHANNELS 3 Zrotation Yrotation Xrotation
							JOINT LeftHand
							{
								OFFSET 3.450000 0.000000 0.000000
								CHANNELS 3 Zrotation Yrotation Xrotation
								JOINT LeftHandIndex1
								{
									OFFSET 0.750000 0.000000 0.000000
									CHANNELS 3 Zrotation Yrotation Xrotation
									End Site
									{
										OFFSET 0.000000 0.000000 0.000000
									}
								}
							}
						}
					}
				}
				JOINT RightShoulder
				{
					OFFSET 0.000000 0.000000 0.000000
					CHANNELS 3 Zrotation Yrotation Xrotation
					JOINT RightArm
					{
						OFFSET -2.700000 1.550000 -0.730000
						CHANNELS 3 Zrotation Yrotation Xrotation
						JOINT RightForeArm
						{
							OFFSET -5.450000 0.000000 0.000000
							CHANNELS 3 Zrotation Yrotation Xrotation
							JOINT RightHand
							{
								OFFSET -3.450000 0.000000 0.000000
								CHANNELS 3 Zrotation Yrotation Xrotation
								JOINT RightHandIndex1
								{
									OFFSET -0.750000 0.000000 0.000000
									CHANNELS 3 Zrotation Yrotation Xrotation
									End Site
									{
										OFFSET 0.000000 0.000000 0.000000
									}
								}
							}
						}
					}
				}
			}
		}
	}
}
MOTION
Frames: 9
Frame Time: 0.016667
0.763180 17.890460 -0.802710 -16.080263 -4.239620 -6.615297 -14.813214 12.149386 1.258213 5.094537 -1.245922 -10.726189 2.095663 4.860184 22.705483 -0.558313 4.488424 3.257954 0.008540 -0.412580 0.024670 19.066020 -8.609783 6.308014 10.298582 23.110570 -49.553002 -9.324417 -27.509497 121.436711 -4.019048 -18.985639 -0.839549 -0.183880 0.580170 0.132210 -5.198389 -1.186383 -8.577464 32.677733 -14.569758 29.902887 -17.517064 -4.566515 1.883500 3.567906 -5.639989 -7.799539 -11.936159 3.683342 35.274245 -1.270860 0.981940 -3.720710 -7.584901 6.177286 0.445896 -18.162859 -1.297905 -1.068974 98.874607 -75.849285 -81.517474 -3.679834 -0.716640 0.557570 0.237500 -0.259410 0.148150 -0.723249 -4.468070 4.871079 38.749108 -8.202330 -14.858335 -55.306212 55.941011 -23.094978 1.528107 -1.092075 -0.431140 0.360310 0.234170 -0.172810 
0.708640 17.820590 -0.761220 -14.181267 -4.898752 -5.994648 -14.809603 12.216017 1.449590 2.753864 -1.274180 -10.543892 2.784618 4.261150 20.945399 -0.614422 4.183945 3.379288 0.059460 -0.354700 0.059310 18.999314 -8.787747 5.977846 7.761093 20.546108 -46.442626 -2.439597 -34.598511 116.723242 -4.255178 -19.910002 -1.018243 -0.137650 0.570200 0.126930 -5.135549 -1.340128 -8.502806 28.858081 -12.765705 27.970070 -15.370264 -4.815024 2.730687 2.723720 -5.464509 -7.479272 -11.990157 4.131306 36.078269 -1.145080 1.209570 -3.822000 -7.146456 4.860225 -0.262011 -18.193688 -0.732866 -3.781039 89.333910 -81.118355 -74.460465 -3.363603 -1.143530 0.558270 0.235140 -0.253550 0.163050 0.599113 -3.744600 4.616547 35.439692 -8.351287 -14.506953 -52.506389 55.234351 -21.786379 1.554151 -1.156359 -0.432200 0.371400 0.207180 -0.178980 
0.650030 17.726840 -0.705200 -11.780674 -5.870390 -5.175159 -14.834070 12.242046 1.667625 -0.084543 -1.215197 -10.234968 3.484280 3.740708 19.159313 -0.639823 3.906971 3.488157 0.107510 -0.278760 0.081540 18.920644 -8.830106 5.722232 4.552520 17.956735 -42.701189 4.273993 -40.794572 111.777146 -4.433625 -20.565812 -1.136378 -0.085090 0.567900 0.123700 -5.020539 -1.641940 -8.468436 24.187187 -10.706053 25.253855 -13.105859 -5.013284 3.845301 2.077100 -5.227919 -7.213712 -11.978979 5.057329 37.205770 -1.428400 2.164060 -3.218020 -7.121021 3.850560 -0.464018 -18.180743 -0.002892 -5.607591 81.106675 -84.801043 -69.907311 -3.336395 -0.589530 0.528780 0.251430 -0.251390 0.183830 2.059076 -3.167821 4.066522 31.847768 -7.268789 -13.548396 -49.531623 53.687104 -20.035036 1.602946 -1.251760 -0.420960 0.375150 0.173920 -0.172940 
0.596740 17.612110 -0.685300 -10.875605 -8.630467 -2.785230 -14.825888 12.133845 1.759554 -1.104983 -1.526838 -12.171319 3.353151 3.587503 18.806554 -0.709198 3.756853 3.544318 0.145990 -0.221550 0.093600 18.925176 -8.896294 5.600571 2.801931 16.896033 -40.427773 9.522969 -42.050089 104.916927 -4.303999 -20.139687 -1.081580 -0.020440 0.610540 0.127910 -5.079548 -1.508747 -8.351243 22.471896 -8.659966 20.902204 -12.235195 -4.063364 5.616563 1.575959 -5.227789 -6.878996 -11.776517 5.984169 36.633050 -1.626180 3.147060 -2.521270 -7.245589 3.770560 -0.327122 -18.247902 -0.922724 -4.767248 82.153459 -85.194620 -71.764795 -3.428580 -0.746503 0.478570 0.302900 -0.284520 0.207360 3.161037 -3.002295 3.453929 29.385416 -5.882715 -12.516967 -47.541051 51.921828 -18.633574 1.609768 -1.342776 -0.430900 0.396200 0.160180 -0.167930 
0.537850 17.504540 -0.668790 -10.069754 -11.905242 -1.353479 -14.843181 12.137438 1.874461 -1.817662 -1.714933 -13.280983 3.198826 3.585047 19.047094 -0.744944 3.725317 3.546175 0.154560 -0.193580 0.107080 18.890997 -9.042422 5.415034 1.458316 15.603832 -36.723111 13.856247 -41.038194 97.086713 -4.018208 -19.096803 -0.916446 0.016240 0.628420 0.124690 -5.033032 -1.437681 -8.243049 20.215368 -6.575374 17.531354 -11.025393 -2.785295 7.956703 1.457592 -4.872123 -7.185466 -11.067449 6.384084 37.112281 -2.352730 4.112900 -1.965980 -8.291893 3.211431 1.042835 -18.330543 -2.177136 -1.468315 92.821962 -81.175951 -80.822899 -3.726067 -1.359186 0.441510 0.340800 -0.303620 0.201850 4.503869 -2.154042 2.966317 27.304869 -4.517999 -11.953798 -45.950909 50.063974 -17.546060 1.610531 -1.376033 -0.439460 0.410420 0.160340 -0.172740 
0.466780 17.389610 -0.670730 -8.676002 -15.681228 -1.219702 -14.940006 12.303988 2.075181 -2.889530 -1.964355 -14.045500 2.937112 3.845440 21.228532 -0.692558 3.932224 3.462057 0.191560 -0.146380 0.118740 18.756595 -9.152776 5.176710 -0.078586 14.147439 -32.275542 17.890082 -38.801931 88.247852 -3.682400 -17.701025 -0.656979 0.032980 0.627380 0.148480 -4.697273 -1.731545 -8.196367 15.919130 -4.513890 16.443070 -8.733104 -1.467861 9.537311 1.418716 -4.756858 -8.027863 -11.105335 6.717906 37.564234 -2.359400 4.451310 -2.043960 -9.284002 2.423008 3.113040 -19.554471 -2.477339 1.338081 104.282110 -75.213396 -92.293646 -4.166374 0.105027 0.441890 0.342310 -0.279670 0.230840 5.886351 -0.462349 2.596353 25.280411 -2.817594 -11.616667 -45.124180 48.251826 -16.789975 1.615489 -1.395905 -0.417090 0.402890 0.132480 -0.158600 
0.399180 17.243540 -0.658330 -7.746260 -19.260837 0.135793 -15.018451 12.325818 2.208206 -3.928079 -2.314213 -15.752336 3.428625 3.708343 21.997327 -0.712739 3.960312 3.469721 0.182280 -0.141800 0.067780 18.679580 -9.300868 4.868151 -1.354429 12.921191 -28.874271 19.359409 -36.025794 82.173646 -3.328699 -16.614345 -0.442705 0.071620 0.718070 0.149740 -4.492595 -1.729075 -7.946014 13.133836 -2.664223 13.016558 -7.113766 -0.321071 10.510874 1.006019 -4.735789 -7.780548 -10.778671 7.319868 35.905330 -1.821570 4.801640 -0.049560 -9.281206 2.640927 3.682347 -21.100752 -3.139339 2.528434 115.568540 -73.982037 -107.806726 -4.377254 1.977253 0.361550 0.422010 -0.359090 0.261980 6.886883 -0.212583 2.014702 23.889401 -1.113349 -10.723595 -43.759732 47.844087 -16.106950 1.585935 -1.462275 -0.439890 0.414320 0.141450 -0.134990 
0.331940 17.114350 -0.646190 -6.102135 -22.921026 0.072501 -15.125400 12.435268 2.433824 -5.650333 -2.640215 -16.597494 4.179879 3.606233 23.796872 -0.647646 4.118883 3.398798 0.190160 -0.107830 0.027740 18.551194 -9.540072 4.441717 -2.942938 11.338891 -24.719632 18.841644 -31.879394 76.396491 -2.931464 -15.321039 -0.182646 0.091440 0.752030 0.193070 -4.131250 -1.789242 -7.730846 9.218700 -0.979886 11.226128 -5.765950 0.836351 10.686901 0.866583 -4.328975 -7.346910 -9.783853 7.637562 34.965071 -1.714520 5.445570 1.049650 -9.692833 2.866300 3.658899 -23.565551 -3.975135 2.539412 126.612624 -72.015905 -119.274037 -4.337577 2.859893 0.287770 0.474460 -0.383530 0.284830 7.747045 -0.159644 1.529128 24.335156 0.929546 -10.142040 -42.580014 48.475462 -15.890301 1.562416 -1.513480 -0.401770 0.369480 0.139670 -0.103140 
0.275010 17.005660 -0.642350 -5.039899 -27.341405 -0.100338 -15.148481 12.488004 2.668117 -6.766132 -3.205785 -18.088106 4.760315 3.730122 27.158290 -0.577254 4.585713 3.249040 0.126160 -0.190530 -0.041130 18.495986 -9.882359 4.010670 -3.836652 10.094441 -20.860219 16.907446 -27.290217 71.296888 -2.495322 -14.023881 0.107072 0.065950 0.857330 0.228900 -4.013212 -1.570575 -7.523984 7.427107 0.422471 10.185402 -5.837173 2.080803 9.847883 0.707265 -4.370784 -6.758901 -9.469678 8.099280 33.598931 -1.381170 5.713060 2.978540 -10.627514 3.628518 3.275496 -25.095919 -5.107632 3.295017 134.715020 -70.300419 -127.223549 -4.387521 3.161015 0.230810 0.555250 -0.455400 0.289970 8.937057 -0.482085 1.060647 25.888516 2.659691 -9.663893 -42.083212 50.080948 -16.170631 1.514116 -1.503578 -0.422410 0.370430 0.194710 -0.082600 
